<!DOCTYPE svg PUBLIC "-//W3C//DTD SVG 20010904//EN" "http://www.w3.org/TR/2001/REC-SVG-20010904/DTD/svg10.dtd">
<svg version="1.0" xmlns="http://www.w3.org/2000/svg" width="259px" height="90px" viewBox="0 0 2590 900" preserveAspectRatio="xMidYMid meet"><g fill="#bfbfbf" stroke="none">
 </g>

<g fill="#939393" stroke="none">
 </g>

<g fill="#797979" stroke="none">
 <path d="M2467 603 c-4 -6 0 -18 7 -28 8 -11 16 -14 19 -8 4 6 0 18 -7 28 -8 11 -16 14 -19 8z"/>
 </g>

<g fill="#4d4d4d" stroke="none">
 <path d="M2236 682 c-3 -6 1 -15 8 -21 8 -7 17 -8 20 -3 3 6 -1 15 -8 21 -8 7 -17 8 -20 3z"/>
 <path d="M1605 590 c-4 -6 -10 -8 -15 -5 -5 3 -11 1 -14 -4 -4 -5 -2 -12 3 -15 5 -4 12 -2 16 4 4 6 10 8 15 5 5 -3 11 -1 14 4 4 5 2 12 -3 15 -5 4 -12 2 -16 -4z"/>
 <path d="M2347 594 c-3 -4 -1 -16 5 -28 7 -11 12 -24 13 -28 0 -5 3 -8 8 -8 6 0 9 5 6 13 0 1 -2 10 -4 21 -4 23 -19 39 -28 30z"/>
 <path d="M2114 578 c-6 -9 -4 -10 26 -11 11 -1 19 3 18 8 -4 12 -37 14 -44 3z"/>
 <path d="M2568 554 c-2 -5 1 -20 8 -34 8 -14 13 -18 13 -10 -1 24 -15 55 -21 44z"/>
 <path d="M1615 540 c-4 -6 -10 -8 -15 -5 -5 3 -11 1 -14 -4 -4 -5 -2 -12 3 -15 5 -4 12 -2 16 4 4 6 10 8 15 5 5 -3 11 -1 14 4 4 5 2 12 -3 15 -5 4 -12 2 -16 -4z"/>
 <path d="M1059 526 c-1 -3 -2 -9 -3 -13 -1 -5 -5 -14 -9 -20 -5 -7 -5 -13 -1 -13 3 0 1 -6 -5 -14 -8 -10 -9 -16 -1 -21 5 -3 11 -4 11 -1 4 16 7 26 9 31 1 3 3 8 4 13 1 4 5 12 9 19 4 6 3 14 -3 18 -5 3 -11 4 -11 1z"/>
 <path d="M815 440 c-3 -5 -2 -10 2 -12 13 -7 33 -3 36 6 3 12 -31 17 -38 6z"/>
 <path d="M825 390 c-3 -5 -2 -10 2 -12 13 -7 33 -3 36 6 3 12 -31 17 -38 6z"/>
 <path d="M2286 392 c-3 -6 1 -15 8 -21 8 -7 17 -8 20 -3 3 6 -1 15 -8 21 -8 7 -17 8 -20 3z"/>
 <path d="M2546 393 c-4 -4 3 -15 16 -25 20 -15 21 -20 11 -37 -7 -11 -9 -23 -4 -25 11 -7 21 17 21 49 0 24 -31 50 -44 38z"/>
 <path d="M546 341 c-4 -5 -2 -12 4 -16 5 -3 10 -3 10 1 0 3 6 1 14 -5 10 -8 16 -9 21 -1 3 5 4 11 1 11 -3 1 -9 2 -13 3 -5 1 -13 5 -20 9 -6 4 -14 3 -17 -2z"/>
 <path d="M1764 328 c-6 -9 -4 -10 26 -11 11 -1 19 3 18 8 -4 12 -37 14 -44 3z"/>
 <path d="M2525 281 c-7 -12 12 -24 25 -16 11 7 4 25 -10 25 -5 0 -11 -4 -15 -9z"/>
 <path d="M2193 253 c-15 -33 -2 -80 18 -67 6 4 6 11 -1 19 -8 10 -8 19 -1 34 7 12 7 22 2 26 -6 3 -14 -2 -18 -12z"/>
 </g>

<g fill="#f26713" stroke="none">
 <path d="M44 613 c-16 -26 -16 -32 7 -152 21 -112 27 -129 53 -153 22 -21 42 -28 80 -30 l51 -3 10 -55 10 -55 59 -3 c32 -2 63 1 68 6 9 9 -63 403 -82 449 -9 21 -15 22 -124 22 -113 0 -114 0 -132 -26z m160 -178 c4 -26 3 -35 -3 -25 -5 8 -12 38 -15 65 -7 56 6 27 18 -40z"/>
 <path d="M1325 630 c-7 -11 4 -77 17 -103 8 -15 20 -17 66 -15 l57 3 -3 49 c-1 27 -7 55 -13 63 -13 15 -115 18 -124 3z"/>
 </g>

<g fill="#2a2929" stroke="none">
 <path d="M2386 675 c-13 -14 -30 -25 -39 -25 -28 0 -29 -19 -2 -64 20 -35 24 -49 16 -69 -8 -20 -6 -29 10 -43 23 -20 25 -71 4 -94 -13 -15 -10 -23 31 -79 45 -62 46 -62 66 -44 11 10 35 18 56 18 32 0 36 3 51 43 15 43 15 44 -7 62 -27 23 -29 56 -2 70 23 12 25 41 9 90 -11 29 -15 32 -45 27 -42 -7 -61 12 -44 43 16 30 7 46 -40 70 l-40 21 -24 -26z"/>
 <path d="M2211 666 c-6 -7 -10 -29 -9 -47 3 -33 2 -34 -37 -34 -33 0 -42 -5 -62 -34 -29 -43 -29 -55 2 -79 33 -26 32 -56 -1 -71 -23 -10 -26 -16 -21 -48 8 -49 34 -75 67 -68 36 8 56 -15 40 -45 -14 -26 4 -51 52 -71 29 -12 32 -11 52 14 27 34 49 34 70 2 18 -28 63 -34 72 -10 7 17 -84 171 -120 202 -36 32 -34 71 5 106 l31 27 -37 67 c-57 103 -78 121 -104 89z"/>
 <path d="M326 632 c-2 -4 5 -52 16 -106 12 -62 16 -102 10 -108 -12 -12 4 -100 22 -113 7 -6 17 -26 21 -45 4 -19 21 -50 38 -67 29 -31 35 -33 103 -33 40 0 75 4 79 10 3 5 -15 30 -39 56 -55 57 -62 72 -33 76 14 2 21 9 20 22 -1 15 5 12 31 -13 31 -30 34 -31 128 -31 l96 0 19 30 20 31 13 -73 c18 -107 21 -110 88 -106 64 3 64 2 47 103 -8 49 -7 50 12 32 22 -19 127 -25 138 -7 3 5 -19 43 -50 84 l-55 75 30 82 c17 45 28 89 26 96 -4 10 -23 13 -73 11 -66 -3 -66 -3 -79 -38 -11 -32 -13 -33 -13 -9 -1 39 -22 51 -83 47 l-53 -3 2 -40 c1 -22 -1 -33 -4 -25 -3 8 -17 27 -31 43 -24 26 -30 27 -117 27 -85 0 -93 -2 -115 -25 -23 -24 -23 -27 -11 -92 7 -38 14 -78 17 -89 5 -18 2 -21 -19 -17 -28 5 -29 8 -48 123 -7 41 -17 81 -22 88 -10 13 -123 17 -131 4z m496 -119 l4 -28 -77 3 c-56 3 -79 8 -83 18 -4 11 8 14 64 14 38 0 72 5 75 10 9 15 12 12 17 -17z m-114 -116 c5 -24 -15 -21 -21 4 -3 13 -1 19 6 16 7 -2 13 -11 15 -20z"/>
 <path d="M1136 632 c-2 -4 6 -58 19 -120 13 -65 18 -115 13 -118 -13 -9 2 -97 19 -111 9 -7 18 -27 22 -45 l7 -33 64 0 65 0 -3 36 c-3 30 0 37 19 42 20 5 21 10 14 54 -9 60 -11 63 -39 63 -21 0 -24 8 -41 108 -10 59 -22 113 -28 120 -10 13 -123 17 -131 4z"/>
 <path d="M1455 628 c-3 -7 10 -87 28 -178 l33 -165 116 -2 c116 -3 117 -2 138 24 l20 26 28 -26 c26 -25 34 -27 118 -27 83 0 92 2 114 24 l23 25 -24 123 c-20 102 -29 128 -52 155 -29 33 -30 33 -121 33 -80 0 -95 -3 -111 -20 l-18 -20 -14 20 c-11 16 -25 20 -69 20 -35 0 -56 -5 -60 -13 -2 -7 5 -57 16 -111 22 -106 24 -129 11 -106 -5 8 -16 58 -26 110 -10 52 -22 101 -28 108 -5 7 -32 12 -64 12 -34 0 -55 -5 -58 -12z m459 -188 c5 -30 4 -40 -3 -30 -5 8 -12 38 -15 65 -8 62 8 31 18 -35z"/>
 </g>

<g fill="#ffffff" stroke="none">
 <path d="M0 450 l0 -450 1295 0 1295 0 0 173 0 172 -21 -32 c-24 -37 -23 -37 -51 -22 -16 9 -24 7 -43 -11 l-22 -21 -37 51 c-34 48 -36 52 -21 73 21 30 19 70 -5 92 -13 12 -17 25 -14 45 4 17 -2 42 -15 69 -21 40 -21 41 -2 41 11 0 26 10 32 23 6 12 13 23 14 25 1 2 19 -5 39 -14 33 -16 36 -21 31 -48 -9 -45 14 -71 59 -68 30 2 38 -2 46 -20 6 -15 9 44 9 175 l1 197 -1295 0 -1295 0 0 -450z m2288 145 c23 -41 42 -76 42 -78 0 -2 -13 -18 -30 -35 -38 -40 -38 -68 1 -108 16 -17 52 -67 79 -110 46 -74 48 -79 28 -82 -15 -3 -28 5 -41 22 -24 33 -50 33 -75 0 -18 -25 -21 -26 -56 -14 -36 12 -38 14 -31 47 9 48 -16 76 -60 67 -28 -5 -33 -2 -38 18 -12 44 -8 65 18 76 34 16 33 54 -1 80 -25 18 -26 21 -14 56 11 35 14 38 43 32 37 -8 78 24 70 55 -6 21 2 49 14 49 4 0 27 -34 51 -75z m-1961 -190 c23 -116 42 -213 43 -217 0 -5 -22 -8 -48 -8 l-48 0 -15 62 -14 62 -55 -3 c-80 -3 -92 13 -121 166 -29 157 -32 154 109 150 l106 -2 43 -210z m137 114 c19 -116 20 -119 47 -119 20 0 23 -4 33 -52 5 -23 3 -28 -13 -28 -11 0 -22 -3 -24 -8 -10 -15 6 -64 22 -69 20 -7 61 -44 61 -55 0 -4 -28 -8 -63 -8 -75 0 -101 20 -113 85 -3 22 -16 49 -27 59 -16 16 -18 28 -14 70 4 32 -1 84 -12 139 l-18 87 52 0 52 0 17 -101z m305 75 c36 -46 29 -54 -48 -54 -39 0 -72 -4 -75 -9 -4 -5 -2 -21 4 -35 9 -25 13 -26 84 -26 l74 0 11 -50 c25 -115 20 -120 -98 -120 -127 0 -131 3 -162 167 -29 155 -30 153 96 153 89 0 95 -1 114 -26z m157 -20 c5 -25 14 -46 19 -46 6 0 16 20 23 46 l13 46 55 0 c30 0 54 -1 54 -3 0 -2 -13 -41 -29 -88 l-28 -85 23 -29 c13 -17 38 -49 55 -72 l30 -43 -55 0 c-52 0 -55 2 -76 36 -34 55 -45 30 -26 -61 9 -42 16 -81 16 -86 0 -5 -22 -9 -48 -9 l-48 0 -38 198 c-21 108 -40 207 -43 220 -5 21 -2 22 44 22 l50 0 9 -46z m349 -61 c19 -115 27 -133 56 -133 11 0 19 -4 19 -9 0 -5 3 -22 6 -38 5 -25 2 -31 -16 -36 -19 -5 -22 -11 -18 -41 l4 -36 -47 0 c-46 0 -47 1 -53 36 -4 19 -13 37 -21 40 -17 7 -29 72 -16 88 9 10 1 57 -34 214 -5 21 -2 22 48 22 l54 0 18 -107z m165 93 c0 -7 3 -28 6 -45 l7 -31 -46 0 c-51 0 -52 0 -61 53 l-7 37 51 0 c36 0 50 -4 50 -14z m146 -83 c21 -119 29 -143 49 -143 26 0 27 24 6 124 -12 53 -21 100 -21 106 0 5 22 10 48 10 l48 0 28 -145 c23 -115 26 -148 16 -160 -9 -11 -38 -14 -119 -14 l-108 0 -27 137 c-15 75 -30 147 -33 160 -5 21 -2 22 45 22 l50 0 18 -97z m401 74 c11 -14 28 -73 42 -146 29 -153 31 -151 -93 -151 -122 0 -126 4 -157 167 -29 155 -30 153 96 153 86 0 95 -2 112 -23z"/>
 <path d="M158 535 c-6 -6 18 -130 28 -146 8 -13 34 -11 39 4 3 7 -1 42 -8 77 -10 52 -17 66 -33 68 -11 2 -22 0 -26 -3z"/>
 <path d="M666 432 c-12 -19 11 -67 32 -70 27 -4 36 16 23 51 -10 26 -43 37 -55 19z"/>
 <path d="M1868 535 c-7 -8 20 -137 32 -149 15 -15 40 2 39 26 0 13 -6 46 -12 73 -9 38 -17 51 -32 53 -12 2 -23 0 -27 -3z"/>
 <path d="M2552 454 c-26 -18 -28 -45 -4 -66 39 -34 42 -32 42 26 0 60 -4 64 -38 40z"/>
 </g>

</svg>